<?xml version="1.0" encoding="utf-8"?>
<!-- Generator: Adobe Illustrator 15.0.0, SVG Export Plug-In . SVG Version: 6.00 Build 0)  -->
<!DOCTYPE svg PUBLIC "-//W3C//DTD SVG 1.1//EN" "http://www.w3.org/Graphics/SVG/1.1/DTD/svg11.dtd">
<svg version="1.1" id="Working_Image" xmlns="http://www.w3.org/2000/svg" xmlns:xlink="http://www.w3.org/1999/xlink" x="0px"
	 y="0px" width="612px" height="792px" viewBox="0 0 612 792" enable-background="new 0 0 612 792" xml:space="preserve">
<path id="osu_x21__x5F_txt_x5F_Path_2_" fill="#FFFFFF" d="M175.032,450.905c-8.219,0-15.388-1.399-21.508-4.021
	c-6.12-2.623-11.191-6.47-15.038-11.191c-4.021-4.721-6.994-10.316-9.092-16.786c-2.099-6.47-2.973-13.289-2.973-20.809
	c0-7.518,1.049-14.513,2.973-20.982c2.098-6.47,5.071-12.24,9.092-16.961c4.022-4.721,9.093-8.568,15.038-11.366
	c5.945-2.798,13.289-4.197,21.508-4.197c8.218,0,15.387,1.399,21.507,4.197c6.12,2.798,11.191,6.47,15.387,11.366
	c4.022,4.721,6.994,10.491,9.093,16.961c1.923,6.47,2.973,13.464,2.973,20.982c0,7.52-1.049,14.339-2.973,20.809
	s-4.896,12.065-9.093,16.786c-4.021,4.722-9.092,8.568-15.387,11.191C190.594,449.681,183.25,450.905,175.032,450.905z
	 M175.032,429.747c7.344,0,12.589-2.797,15.737-8.218s4.721-13.289,4.721-23.432c0-10.141-1.574-18.01-4.721-23.43
	s-8.393-8.218-15.737-8.218c-7.169,0-12.415,2.798-15.563,8.218s-4.721,13.289-4.721,23.43c0,10.143,1.574,18.011,4.721,23.432
	C162.617,427.125,167.863,429.747,175.032,429.747z M265.608,404.393c-7.344-2.098-13.114-5.245-17.136-9.267
	c-4.197-4.196-6.12-10.316-6.12-18.535c0-9.967,3.497-17.661,10.666-23.431c7.169-5.596,16.787-8.394,29.201-8.394
	c5.071,0,10.142,0.525,15.038,1.399c4.896,0.875,9.966,2.273,15.038,4.197c-0.35,3.322-0.874,6.994-1.924,10.666
	c-1.049,3.672-2.272,6.82-3.672,9.617c-3.147-1.224-6.645-2.448-10.316-3.497c-3.847-1.049-7.869-1.399-11.89-1.399
	c-4.372,0-7.869,0.7-10.317,2.099c-2.448,1.399-3.672,3.497-3.672,6.645c0,2.797,0.875,4.896,2.623,6.12
	c1.749,1.224,4.196,2.273,7.519,3.323l11.191,3.322c3.672,1.049,6.995,2.273,9.967,3.847s5.42,3.322,7.519,5.595
	c2.099,2.273,3.672,4.896,4.896,8.219c1.224,3.322,1.748,7.344,1.748,11.891c0,4.896-1.049,9.267-2.973,13.463
	c-2.098,4.197-4.896,7.869-8.743,10.842c-3.847,3.147-8.567,5.42-13.988,7.344c-5.42,1.749-11.715,2.623-18.709,2.623
	c-3.147,0-5.945-0.175-8.568-0.35c-2.623-0.175-5.071-0.524-7.519-1.05c-2.448-0.524-4.721-1.049-7.169-1.748
	c-2.273-0.699-4.896-1.574-7.694-2.623c0.175-3.497,0.874-7.169,1.923-10.666c1.049-3.672,2.273-7.169,3.847-10.491
	c4.372,1.748,8.394,2.972,12.24,3.847c3.847,0.874,7.869,1.224,12.065,1.224c1.749,0,3.847-0.175,5.945-0.524
	s4.196-0.874,5.945-1.749c1.749-0.874,3.322-1.923,4.546-3.322c1.224-1.398,1.924-3.146,1.924-5.42c0-3.147-0.875-5.421-2.798-6.82
	c-1.923-1.398-4.546-2.622-7.869-3.672L265.608,404.393z M334.327,347.215c4.721-0.699,9.268-1.224,13.988-1.224
	c4.546,0,9.268,0.35,13.988,1.224v53.682c0,5.42,0.35,9.791,1.225,13.289c0.874,3.496,2.098,6.295,3.847,8.218
	c1.748,2.099,4.021,3.497,6.645,4.371c2.623,0.875,5.771,1.225,9.268,1.225c4.896,0,8.917-0.524,12.24-1.399v-79.385
	c4.721-0.699,9.267-1.224,13.813-1.224c4.546,0,9.268,0.35,13.988,1.224v97.57c-4.196,1.398-9.792,2.798-16.611,4.196
	c-6.819,1.399-13.988,2.099-21.508,2.099c-6.645,0-13.114-0.524-19.234-1.574c-6.12-1.049-11.54-3.322-16.262-6.645
	c-4.721-3.322-8.393-8.393-11.016-14.862c-2.798-6.47-4.196-15.213-4.196-26.054v-54.73H334.327z M449.558,448.632
	c-0.699-4.896-1.224-9.617-1.224-14.338c0-4.722,0.35-9.617,1.224-14.513c4.896-0.7,9.617-1.225,14.339-1.225
	c4.721,0,9.616,0.35,14.513,1.225c0.699,4.896,1.224,9.791,1.224,14.338c0,4.896-0.35,9.617-1.224,14.513
	c-4.896,0.699-9.792,1.225-14.338,1.225C459.175,449.681,454.454,449.331,449.558,448.632z M448.858,307.522
	c5.07-0.7,10.142-1.224,15.038-1.224c5.07,0,10.142,0.35,15.387,1.224l-1.923,95.997c-4.547,0.699-8.918,1.223-13.114,1.223
	c-4.372,0-8.918-0.35-13.289-1.223L448.858,307.522z"/>
<path id="Rim_6_" fill="#FFFFFF" d="M306,133.714C161.218,133.714,43.714,251.218,43.714,396
	c0,144.781,117.504,262.286,262.286,262.286c144.781,0,262.286-117.505,262.286-262.286
	C568.286,251.218,450.781,133.714,306,133.714z M306,632.058C175.557,632.058,69.943,526.443,69.943,396
	S175.557,159.943,306,159.943S542.057,265.557,542.057,396S436.443,632.058,306,632.058z"/>
</svg>
